PathFileType	4	(X/Y/Z)	C:\Users\Basilio\Documents\Thesis Gigler\squatting_fais\c3dfiles\044\SLS_back_pre4\markers_experimental.trc
DataRate	CameraRate	NumFrames	NumMarkers	Units	OrigDataRate	OrigDataStartFrame	OrigNumFrames
200.000000	200.000000	4	63	mm	200.000000	1196	1367
Frame#	Time	FHD			LBHD			RBHD			C7			T10			LSHO			LUUPA			LMUPA			LDUPA			LLEP			LMEP			LUL			LRFIN			RSHO			RUPA1			RMUPA			RDUPA			RLEP			RMEP			RUFIN			LASI			RASI			USACR			LSACR			RSACR			LTHI1			LTHI2			LTHI3			LTHI4			LLFC			LMFC			LTIB1			LTIB2			LTIB3			LTIB4			LLMAL			LMMAL			LHEE			LMT1			LMT2			LMT5			RTHI			RTHI2			RTHI3			RTHI4			RLFC			RMFC			RTIB1			RTIB2			RTIB3			RTIB4			RLMAL			RMMAL			RHEE			RMT1			RMT2			RMT5			RRAD			RUL			CLAV			LRAD			*61			*62			
		X1	Y1	Z1	X2	Y2	Z2	X3	Y3	Z3	X4	Y4	Z4	X5	Y5	Z5	X6	Y6	Z6	X7	Y7	Z7	X8	Y8	Z8	X9	Y9	Z9	X10	Y10	Z10	X11	Y11	Z11	X12	Y12	Z12	X13	Y13	Z13	X14	Y14	Z14	X15	Y15	Z15	X16	Y16	Z16	X17	Y17	Z17	X18	Y18	Z18	X19	Y19	Z19	X20	Y20	Z20	X21	Y21	Z21	X22	Y22	Z22	X23	Y23	Z23	X24	Y24	Z24	X25	Y25	Z25	X26	Y26	Z26	X27	Y27	Z27	X28	Y28	Z28	X29	Y29	Z29	X30	Y30	Z30	X31	Y31	Z31	X32	Y32	Z32	X33	Y33	Z33	X34	Y34	Z34	X35	Y35	Z35	X36	Y36	Z36	X37	Y37	Z37	X38	Y38	Z38	X39	Y39	Z39	X40	Y40	Z40	X41	Y41	Z41	X42	Y42	Z42	X43	Y43	Z43	X44	Y44	Z44	X45	Y45	Z45	X46	Y46	Z46	X47	Y47	Z47	X48	Y48	Z48	X49	Y49	Z49	X50	Y50	Z50	X51	Y51	Z51	X52	Y52	Z52	X53	Y53	Z53	X54	Y54	Z54	X55	Y55	Z55	X56	Y56	Z56	X57	Y57	Z57	X58	Y58	Z58	X59	Y59	Z59	X60	Y60	Z60	X61	Y61	Z61	X62	Y62	Z62	X63	Y63	Z63	

1197	5.98	-181.8883666992188	1793.073608398438	-1014.640869140625	-308.8214721679688	1750.62890625	-1098.626953125	-360.5539550781251	1733.660034179688	-941.7797851562502	-366.7945251464844	1564.308471679688	-1023.67626953125	-389.6077575683595	1265.416625976563	-989.6492309570315	-270.4108886718751	1576.648193359375	-1162.126220703125	-103.975326538086	1556.689453125	-1256.957763671875	-77.92281341552736	1569.751098632813	-1215.734497070313	-35.96396636962891	1555.373413085938	-1255.784545898438	22.11889266967774	1557.312255859375	-1243.839233398438	18.03509330749512	1480.644653320313	-1232.053955078125	263.1010742187501	1585.23974609375	-1095.600219726563	257.0684204101563	1606.01123046875	-993.917175292969	-289.7898254394532	1577.184204101563	-863.113708496094	-152.2043151855469	1574.205810546875	-742.0584716796876	-118.2345352172852	1586.207763671875	-777.794616699219	-84.19777679443361	1579.221313476563	-728.6488037109376	-21.95747566223145	1585.83740234375	-730.5362548828126	-17.87196922302246	1503.659790039063	-731.4369506835939	247.6227416992188	1577.042724609375	-954.8565063476565	-234.1079406738282	1051.647827148438	-1064.861450195313	-234.7539215087891	1050.197143554688	-851.1085205078127	-397.9480285644532	1120.885498046875	-960.6113281250002	-406.1908569335939	1087.314331054688	-985.1806640625002	-403.8013916015626	1093.32421875	-928.5241699218752	-317.9057312011719	815.827819824219	-1131.020629882813	-276.5741577148438	741.6203613281251	-1131.640991210938	-228.275375366211	748.8142089843751	-1129.622680664063	-295.5381164550782	687.4912109375001	-1114.5078125	-263.0369567871094	533.3995971679689	-1099.044799804688	-253.0076141357422	531.6585693359376	-977.1818847656252	-250.2888793945313	359.3640136718751	-1017.322204589844	-280.3402709960938	311.0500488281251	-1085.863525390625	-250.4302978515626	309.9070434570313	-1049.12158203125	-273.0086059570313	235.4783935546876	-1015.602600097656	-334.5373229980469	122.8210144042969	-1055.820190429688	-315.5404663085938	133.3146209716797	-972.111999511719	-398.1163330078126	103.1184539794922	-1006.576599121094	-191.5714111328125	59.29957580566408	-981.9694824218752	-190.6428833007813	59.73022842407228	-1028.879150390625	-227.2838745117188	45.18811035156251	-1075.582153320313	-314.6128540039063	786.4885253906252	-749.4138793945314	-268.1686706542969	738.0834350585939	-739.2728271484376	-235.7571258544922	743.2404785156251	-745.9523315429689	-283.5103454589844	655.2697143554689	-748.8370971679689	-273.8076782226563	546.9136352539064	-742.5747070312501	-279.9888000488282	526.3553466796876	-862.9163818359377	-240.6757965087891	414.6405639648439	-753.5997314453126	-316.7742919921876	356.6933898925782	-698.1574096679689	-276.5671386718751	343.6630859375001	-715.3981933593751	-271.6364746093751	289.3550720214844	-735.1210327148439	-348.9228210449219	142.6526794433594	-698.0311279296876	-331.0085144042969	144.0447692871094	-783.0186767578127	-410.7626342773439	110.7759857177735	-740.9907836914064	-206.9550781250001	67.71489715576173	-769.6435546875002	-198.9488677978516	64.77263641357423	-733.7935791015626	-236.5617370605469	50.09933853149415	-679.7521972656251	223.5209045410157	1546.510375976563	-881.6399536132815	237.5619049072266	1605.39306640625	-840.9088134765627	nan	nan	nan	243.3262176513672	1539.124267578125	-1045.886840820313	nan	nan	nan	nan	nan	nan	
1198	5.985	-182.3433380126953	1793.133544921875	-1014.371154785156	-309.4103393554688	1750.551025390625	-1098.068359375	-360.7656555175782	1733.5498046875	-941.0244140625002	-367.2131958007813	1564.096069335938	-1022.767395019531	-389.6368408203126	1265.213745117188	-988.7493896484377	-270.9914550781251	1576.521728515625	-1161.373046875	-104.6373443603516	1556.573608398438	-1256.3544921875	-78.4630813598633	1569.8798828125	-1215.170532226563	-36.67633056640626	1555.064453125	-1255.252075195313	22.44150161743164	1556.8349609375	-1243.720092773438	17.21849250793457	1480.533325195313	-1231.272827148438	262.4774780273438	1585.800170898438	-1095.37255859375	256.1302490234376	1607.911865234375	-993.7121582031252	-290.2444763183594	1577.177368164063	-862.4040527343752	-152.4209289550782	1574.303466796875	-741.3822021484376	-118.479721069336	1586.237915039063	-777.1406250000002	-84.39099121093751	1579.451049804688	-728.1324462890626	-22.2225341796875	1585.947998046875	-729.9619140625001	-17.85491561889649	1503.61328125	-731.0229492187501	247.2203521728516	1578.24951171875	-954.490417480469	-233.9190826416016	1051.733764648438	-1064.4306640625	-234.4807586669922	1050.115112304688	-850.5488891601565	-397.6954650878907	1120.542602539063	-959.9959716796877	-404.4124450683595	1087.086547851563	-984.812683105469	-404.8942871093751	1094.360229492188	-928.0178833007815	-317.5294494628907	815.8756103515627	-1130.803833007813	-276.1304321289063	741.5721435546876	-1131.325561523438	-228.2534332275391	748.6528320312501	-1128.912353515625	-295.1225280761719	687.4846191406251	-1114.265258789063	-262.2649230957032	533.0205688476564	-1098.892944335938	-252.6013336181641	531.6660156250001	-977.073425292969	-250.1181335449219	359.2394409179688	-1017.229248046875	-280.1350708007813	311.1125488281251	-1085.840698242188	-250.1490631103516	309.9549865722657	-1049.132690429688	-272.8006896972657	235.1989898681641	-1015.651916503906	-334.5601806640626	122.820426940918	-1055.766723632813	-315.4854431152344	133.2805633544922	-972.104919433594	-398.1594848632814	103.1085433959961	-1006.615295410156	-191.7379760742188	59.60668182373048	-982.3147583007815	-190.6666564941407	59.79389953613283	-1028.893676757813	-227.300521850586	45.20830917358399	-1075.582275390625	-314.7380676269532	786.128845214844	-749.2216796875001	-268.1982116699219	737.6109619140626	-739.2680053710939	-235.8269958496094	742.4912109375001	-745.6082153320314	-283.7868041992188	654.9989013671876	-748.7142944335939	-274.1934814453126	546.5592651367189	-742.5776367187501	-280.3132019042969	525.9373779296876	-862.9349365234377	-241.2367553710938	414.3518066406251	-753.5848388671876	-317.3307800292969	356.3258666992188	-698.3328857421876	-276.8988647460938	343.3126831054688	-715.5573730468751	-271.9179992675782	289.1256103515626	-735.2114868164064	-349.0426025390626	142.8109436035157	-697.9735717773439	-330.9107055664063	143.7250366210938	-783.1072387695315	-410.7124633789064	110.7057113647461	-741.0846557617189	-206.7753143310547	67.57946014404298	-769.6865844726565	-198.9692382812501	64.61357879638673	-733.8486328125001	-236.5855712890626	50.05512619018556	-679.7758178710939	222.4314575195313	1546.304809570313	-881.1843872070315	237.336654663086	1605.77734375	-840.7410278320315	nan	nan	nan	242.8529052734376	1539.525512695313	-1045.531372070313	nan	nan	nan	nan	nan	nan	
1199	5.99	-183.2932891845703	1793.12158203125	-1013.617004394531	-310.0420532226563	1750.431518554688	-1097.411010742188	-361.2264709472657	1733.494750976563	-940.1358032226565	-367.5473937988282	1563.9541015625	-1022.042846679688	-389.7226867675782	1265.173828125	-988.021911621094	-271.0783081054688	1576.625732421875	-1160.824096679688	-105.2785720825196	1556.394775390625	-1255.79345703125	-79.06690979003908	1569.88623046875	-1214.676025390625	-36.63706970214844	1555.088500976563	-1255.3828125	21.97209930419922	1557.073608398438	-1243.719970703125	16.69521713256836	1480.822509765625	-1230.7734375	262.1189575195313	1586.052856445313	-1095.058715820313	255.9420318603516	1607.993408203125	-993.526062011719	-290.9908142089844	1577.497314453125	-861.778747558594	-152.7340240478516	1574.278198242188	-740.7656250000001	-118.7704086303711	1586.242309570313	-776.4219360351565	-84.71667480468751	1579.529663085938	-727.3297729492189	-22.4105224609375	1586.120361328125	-729.4008789062501	-17.89770317077637	1503.730834960938	-730.5251464843751	246.585678100586	1577.83935546875	-954.2142333984377	-233.6795806884766	1051.7685546875	-1063.988647460938	-233.8276824951172	1049.954223632813	-850.1990356445315	-397.4609375000001	1120.278442382813	-959.3472900390627	-405.9642639160157	1086.921875	-983.986999511719	-403.0067443847657	1092.708129882813	-927.3651123046877	-317.1228942871094	815.8818359375002	-1130.614990234375	-275.6170959472657	741.5364990234376	-1131.057250976563	-227.776840209961	748.4399414062501	-1128.57275390625	-294.7443542480469	687.6254882812501	-1113.965698242188	-262.5506286621094	533.2384033203126	-1098.640502929688	-252.1710662841797	531.5558471679689	-976.832458496094	-249.8386993408204	359.2568359375001	-1017.140808105469	-279.8825073242188	311.1654968261719	-1085.736450195313	-249.7140502929688	310.0117492675782	-1049.090942382813	-272.7658691406251	235.255599975586	-1015.580322265625	-334.5408020019532	122.8315200805664	-1055.781372070313	-315.4190673828126	133.3430633544922	-972.0410156250002	-398.1303710937501	103.2430953979492	-1006.6025390625	-192.0541076660157	59.53972625732423	-982.4360961914065	-190.6921844482422	59.85168838500978	-1028.888793945313	-227.2382507324219	45.09160995483399	-1075.587768554688	-314.9774475097657	786.1101074218752	-749.0506591796876	-268.4297790527344	737.2434082031251	-739.1614990234376	-236.0234527587891	742.0317993164064	-745.3489990234376	-284.0263671875001	654.5155029296876	-748.5437622070314	-274.5865783691407	546.3199462890626	-742.5844116210939	-280.7388305664063	525.6234741210939	-862.8566894531252	-241.6349792480469	414.0393981933595	-753.6797485351564	-317.6430053710938	355.9001464843751	-698.3433837890626	-277.1087341308594	343.0329284667969	-715.7332763671876	-272.2195129394532	288.8326416015626	-735.1865234375001	-348.8380432128907	142.4563903808594	-698.3579711914064	-330.8120727539063	143.4692840576172	-783.1308593750002	-410.6620178222657	110.626205444336	-741.1519165039064	-206.6872863769532	67.46096801757814	-769.6910400390627	-198.9103088378907	64.39830017089845	-733.9042968750001	-236.5435028076172	50.03257369995119	-679.7554931640626	222.4345703125001	1547.40478515625	-880.816833496094	237.1285095214844	1606.189086914063	-840.487976074219	nan	nan	nan	242.3675384521485	1539.81298828125	-1045.216674804688	nan	nan	nan	nan	nan	nan	
1200	5.995	-183.7207183837891	1793.038940429688	-1013.304016113281	-311.4350280761719	1749.705200195313	-1096.589721679688	-361.7987060546876	1733.395385742188	-939.497741699219	-367.9470520019532	1563.764892578125	-1021.13134765625	-389.5362243652345	1264.743408203125	-987.300720214844	-272.1177978515626	1576.489624023438	-1160.009155273438	-105.9590835571289	1556.166748046875	-1255.07958984375	-79.5418167114258	1569.973999023438	-1214.159301757813	-37.23952865600587	1555.221801757813	-1254.893798828125	21.15681648254395	1557.292236328125	-1243.005859375	16.25667572021485	1480.749633789063	-1230.269287109375	261.7650146484376	1586.25634765625	-1094.7734375	255.5051422119141	1608.445678710938	-993.1767578125002	-291.2095947265626	1577.261596679688	-860.9013671875002	-153.0285034179688	1574.2099609375	-740.0546264648439	-119.0839538574219	1586.220092773438	-775.7062988281252	-84.88197326660158	1579.522216796875	-726.7738647460939	-22.70078659057618	1586.333251953125	-728.9147949218751	-18.05539512634278	1503.80126953125	-729.7347412109376	246.1732635498047	1578.247192382813	-953.930847167969	-233.3961944580079	1051.861206054688	-1063.399536132813	-233.5859069824219	1049.777221679688	-849.6699829101565	-397.4248657226564	1120.037231445313	-958.6851196289065	-405.803436279297	1086.986450195313	-983.398132324219	-402.7033081054689	1092.580078125	-926.7702636718752	-316.7269897460938	815.9498291015627	-1130.353637695313	-275.2178649902344	741.5686645507814	-1130.656860351563	-227.1775054931641	748.4096679687501	-1128.315673828125	-294.3461914062501	687.6050415039064	-1113.732666015625	-262.2558593750001	533.1956787109376	-1098.483642578125	-251.7911987304688	531.5680541992189	-976.6838989257815	-249.5789794921876	359.1940307617188	-1017.023620605469	-279.7714233398438	311.1961669921876	-1085.628540039063	-249.5931396484376	310.0126647949219	-1049.038696289063	-272.5796203613282	235.134994506836	-1015.615783691406	-334.4834594726563	122.8645324707032	-1055.799560546875	-315.4342041015626	133.3751220703125	-972.0317993164065	-398.2040100097657	103.3534469604492	-1006.560913085938	-191.7185516357422	59.59236526489259	-982.3143310546877	-190.6866760253907	59.84756469726564	-1028.8798828125	-227.2417297363282	44.98802185058594	-1075.618530273438	-315.0440979003907	785.9089355468752	-748.8096313476564	-268.6627502441407	736.7066650390626	-738.6251831054689	-236.154281616211	741.7446289062501	-745.2108764648439	-284.6388244628907	654.5905151367189	-749.0397949218751	-275.1451416015626	545.8244018554689	-742.5826416015626	-281.1524047851563	525.2890014648439	-862.8103027343752	-241.8194732666016	413.5488586425782	-753.6674804687501	-317.9119262695313	355.7677001953126	-698.5927124023439	-277.2238464355469	342.7280883789063	-715.8145751953126	-272.4049682617188	288.4682006835938	-735.2184448242189	-348.7397155761719	142.2872161865235	-698.5406494140626	-330.8022155761719	143.1392059326172	-783.2941894531252	-410.5169372558595	110.4325485229492	-741.2384643554689	-206.6584167480469	67.29819488525392	-769.7285156250002	-198.8890380859376	64.40366363525392	-734.0570678710939	-236.5800018310547	50.03374481201173	-679.7325439453126	222.1630401611329	1547.8642578125	-880.4364013671877	236.7965087890626	1606.631591796875	-840.140808105469	nan	nan	nan	241.8491821289063	1540.154907226563	-1044.858276367188	nan	nan	nan	nan	nan	nan	
